<?xml version="1.0" encoding="UTF-8"?><svg id="Layer_1" xmlns="http://www.w3.org/2000/svg" viewBox="0 0 649.47 197.29"><path d="M40.95,69.68c-.79,.65-1.26,1.83-1.4,3.56l-8.09-.11c0-4.31,1.33-7.62,3.99-9.92,2.16-1.94,5.32-2.91,9.49-2.91h24.27c4.17,0,7.96,.86,11.38,2.59,3.42,1.73,6.09,4.1,8.04,7.12,1.94,3.02,2.91,6.47,2.91,10.35,0,3.45-.76,6.44-2.27,8.95-1.51,2.52-3.63,4.42-6.36,5.72-.86,.43-2.12,.83-3.78,1.19,.93,0,2.17,.25,3.72,.75,1.55,.5,3.11,1.19,4.69,2.05,2.16,1.15,3.9,3.09,5.23,5.82,1.33,2.73,2,6.19,2,10.36,0,7.12-2.63,12.46-7.87,16.02-5.25,3.56-12.23,5.34-20.93,5.34h-3.56c-3.81,0-7.44-.18-10.89-.54l-6.69-.75V68.71c-1.87,0-3.17,.32-3.88,.97Zm40.07,55.55c3.41-2.08,5.12-5.46,5.12-10.14s-1.55-8.11-4.64-10.73c-3.09-2.62-6.98-3.94-11.65-3.94h-10.14l.11-7.98,9.28-.11c4.17,0,7.51-1.08,10.03-3.24,2.44-2.16,3.67-5.07,3.67-8.74s-1.12-6.56-3.34-8.68c-2.23-2.12-5.18-3.18-8.85-3.18h-16.93v59.33c4.96,.36,9.2,.54,12.73,.54,6.33,0,11.2-1.04,14.62-3.13Z" style="fill:#fff;"/><path d="M122.65,132.84c-5.65-3.27-10.07-7.73-13.27-13.38-3.2-5.64-4.8-12.03-4.8-19.15v-3.13c0-6.83,1.63-13.11,4.91-18.82,3.27-5.72,7.73-10.25,13.38-13.59,5.64-3.34,11.81-5.02,18.5-5.02s12.94,1.67,18.55,5.02c5.61,3.34,10.07,7.87,13.38,13.59,3.31,5.72,4.96,11.99,4.96,18.82v3.13c0,7.12-1.6,13.56-4.8,19.31-3.2,5.75-7.57,10.25-13.11,13.48-5.54,3.24-11.72,4.82-18.55,4.75-7.12-.07-13.5-1.74-19.15-5.02Zm33.06-7.01c4.24-2.55,7.59-6.06,10.03-10.52,2.44-4.46,3.67-9.46,3.67-14.99v-3.13c0-5.25-1.26-10.12-3.78-14.62-2.52-4.49-5.92-8.05-10.19-10.68-4.28-2.62-9.01-3.94-14.18-3.94s-9.78,1.31-14.02,3.94c-4.24,2.63-7.6,6.19-10.08,10.68-2.48,4.49-3.72,9.37-3.72,14.62v3.13c0,5.54,1.22,10.54,3.67,14.99,2.44,4.46,5.81,7.96,10.09,10.52,4.28,2.55,9.04,3.83,14.29,3.83s9.99-1.28,14.24-3.83Z" style="fill:#fff;"/><path d="M197.51,69.31c-.61-.83-1.53-1.24-2.75-1.24-1.87,.07-3.09,.72-3.67,1.94l-6.04-4.31c.72-1.51,1.92-2.84,3.61-3.99,1.69-1.15,3.86-1.73,6.53-1.73,3.74,0,6.67,1.12,8.79,3.34,2.12,2.23,3.22,5.14,3.29,8.74v20.82h36.13v-31.39h8.85v74.1h-8.85v-34.52h-36.13v34.52h-8.84v-63.42c0-1.08-.31-2.03-.92-2.86Z" style="fill:#fff;"/><path d="M286.82,132.84c-5.65-3.27-10.07-7.73-13.27-13.38-3.2-5.64-4.8-12.03-4.8-19.15v-3.13c0-6.83,1.63-13.11,4.91-18.82,3.27-5.72,7.73-10.25,13.38-13.59,5.64-3.34,11.81-5.02,18.5-5.02s12.94,1.67,18.55,5.02c5.61,3.34,10.07,7.87,13.38,13.59,3.31,5.72,4.96,11.99,4.96,18.82v3.13c0,7.12-1.6,13.56-4.8,19.31-3.2,5.75-7.57,10.25-13.11,13.48-5.54,3.24-11.72,4.82-18.55,4.75-7.12-.07-13.5-1.74-19.15-5.02Zm33.06-7.01c4.24-2.55,7.59-6.06,10.03-10.52,2.44-4.46,3.67-9.46,3.67-14.99v-3.13c0-5.25-1.26-10.12-3.78-14.62-2.52-4.49-5.92-8.05-10.19-10.68-4.28-2.62-9.01-3.94-14.18-3.94s-9.78,1.31-14.02,3.94c-4.24,2.63-7.6,6.19-10.09,10.68-2.48,4.49-3.72,9.37-3.72,14.62v3.13c0,5.54,1.22,10.54,3.67,14.99,2.44,4.46,5.81,7.96,10.08,10.52,4.28,2.55,9.04,3.83,14.29,3.83s9.99-1.28,14.24-3.83Z" style="fill:#fff;"/><path d="M392.9,69.31c-.58-.83-1.47-1.24-2.7-1.24-1.73,0-2.98,.61-3.78,1.83l-5.93-4.42c.72-1.44,1.92-2.71,3.61-3.83,1.69-1.11,3.83-1.67,6.42-1.67,3.81,0,6.78,1.13,8.9,3.4,2.12,2.27,3.18,5.2,3.18,8.79v22l3.24-.11c2.52-.07,4.6-.5,6.26-1.29,1.29-.57,2.32-1.13,3.07-1.67,.75-.54,1.46-1.2,2.1-2,1.8-2.23,4.13-5.82,7.01-10.79,2.3-3.88,5.18-9.49,8.63-16.83h9.71c-6.26,11.72-10.18,18.98-11.76,21.79-2.3,4.03-4.17,7.05-5.61,9.06-1.08,1.58-2.07,2.82-2.97,3.72-.9,.9-1.64,1.6-2.21,2.1l19.63,27.83c.58,.79,1.08,1.31,1.51,1.56,.43,.25,1.01,.38,1.73,.38,.79,0,1.44-.43,1.94-1.29l6.69,4.75c-1.01,1.58-2.34,2.8-3.99,3.67-1.65,.86-3.2,1.29-4.64,1.29-1.87,0-3.65-.42-5.34-1.24-1.69-.83-3-1.92-3.94-3.29l-21.14-29.99c-1.58,.43-3.02,.72-4.31,.86-1.29,.14-3.09,.18-5.39,.11v32.68h-9.06v-63.32c0-1.08-.29-2.03-.86-2.86Z" style="fill:#fff;"/><path d="M460.64,61.48h8.84v74.1h-8.84V61.48Z" style="fill:#fff;"/><path d="M505.57,136.29c-2.99-.11-5.3-.2-6.96-.27l-6.15-.65V69.25c-1.87,0-3.17,.32-3.88,.97-.79,.65-1.26,1.83-1.4,3.56l-8.09-.11c0-4.31,1.33-7.62,3.99-9.92,2.16-1.94,5.32-2.91,9.49-2.91l28.69,.11c6.83,.22,12.84,1.94,18.01,5.18,5.18,3.24,9.2,7.66,12.08,13.27,2.88,5.61,4.31,12.01,4.31,19.2,0,12.73-3.47,22.22-10.41,28.48-6.94,6.26-17.49,9.38-31.66,9.38-2.37,0-5.05-.05-8.04-.16Zm33.22-15.42c5.36-5,8.04-12.42,8.04-22.27,0-5.97-1.1-11.16-3.29-15.59-2.19-4.42-5.3-7.84-9.33-10.25-4.03-2.41-8.74-3.61-14.13-3.61h-18.77v58.68c1.44,.14,3.56,.27,6.36,.38,2.8,.11,5.25,.16,7.33,.16,10.5,0,18.43-2.5,23.78-7.5Z" style="fill:#fff;"/><path d="M574.22,132.08c-4.89-3.7-7.95-8.54-9.17-14.51l7.44-3.24c1.01,4.46,3.29,8.09,6.85,10.89s7.75,4.21,12.57,4.21,9.15-1.46,12.35-4.37c3.2-2.91,4.8-6.67,4.8-11.27,0-2.37-.47-4.37-1.4-5.99-.94-1.62-2.55-3.15-4.85-4.58-2.3-1.44-5.57-3.02-9.82-4.75-7.19-2.95-12.37-6.02-15.53-9.22-3.17-3.2-4.75-6.96-4.75-11.27,0-3.45,.92-6.6,2.75-9.44,1.83-2.84,4.33-5.07,7.5-6.69,3.16-1.62,6.69-2.43,10.57-2.43,3.38,0,6.45,.61,9.22,1.83,2.77,1.22,4.96,2.9,6.58,5.02,1.62,2.12,2.43,4.44,2.43,6.96,0,3.09-1.01,5.61-3.02,7.55-2.01,1.94-4.57,2.91-7.66,2.91-.94,0-1.66-.04-2.16-.11l.65-7.33c.43,.15,.75,.22,.97,.22,.72,0,1.35-.31,1.89-.92,.54-.61,.81-1.35,.81-2.21,0-1.58-.94-2.93-2.8-4.04-1.87-1.11-4.1-1.67-6.69-1.67-3.31,0-6.19,.97-8.63,2.91-2.45,1.94-3.67,4.28-3.67,7.01,0,2.45,1.22,4.73,3.67,6.85,2.44,2.12,6.18,4.23,11.22,6.31,7.69,3.17,13.23,6.53,16.61,10.09,3.38,3.56,5.07,7.86,5.07,12.89,0,4.53-1.15,8.61-3.45,12.24-2.3,3.63-5.45,6.49-9.44,8.58s-8.47,3.13-13.43,3.13c-6.76,0-12.58-1.85-17.47-5.55Z" style="fill:#fff;"/></svg>